<?xml version="1.0" encoding="UTF-8" standalone="no"?>
<!DOCTYPE svg PUBLIC "-//W3C//DTD SVG 1.1//EN" "http://www.w3.org/Graphics/SVG/1.1/DTD/svg11.dtd">
<svg width="100%" height="100%" viewBox="0 0 1024 1024" version="1.1" xmlns="http://www.w3.org/2000/svg" xmlns:xlink="http://www.w3.org/1999/xlink" xml:space="preserve" xmlns:serif="http://www.serif.com/" style="fill-rule:evenodd;clip-rule:evenodd;stroke-linejoin:round;stroke-miterlimit:2;">
    <path d="M510.854,233.46C511.446,233.435 511.879,233.495 512.468,233.662C516.845,234.906 523.464,239.527 527.602,241.998C555.128,258.439 579.237,279.656 596.318,307.034C613.082,333.903 620.306,371.955 608.131,402.021C603.786,412.75 596.395,422.307 593.858,433.726C592.088,441.693 592.521,451.003 597.168,457.954C600.656,463.172 605.951,466.231 612.039,467.42C624.233,469.802 636.862,466.63 647.061,459.746C656.003,453.711 662.945,445.278 667.894,435.737C688.016,396.946 668.656,362.08 676.133,324.693C679.322,308.746 688.287,295.049 701.905,286.067C711.31,279.863 724.038,277.45 735.051,279.826C744.735,281.915 752.751,287.767 758.036,296.102C762.689,303.44 765.342,312.84 763.255,321.456C761.76,327.697 757.812,333.072 752.304,336.366C746.021,340.065 740.061,339.8 733.274,338.155C739.891,335.751 746.375,330.918 749.675,324.59C751.961,320.208 752.577,315.159 751.066,310.421C749.453,305.365 745.656,301.166 740.899,298.861C735.208,296.103 728.273,296.149 722.407,298.352C696.926,307.92 703.236,342.022 705.995,362.502C707.201,371.453 708.233,380.473 708.533,389.506C709.217,410.131 706.446,431.502 697.612,450.319C687.481,471.899 669.602,489.543 646.97,497.523C629.602,503.646 611.88,502.941 595.266,494.99C596.89,496.656 598.543,498.294 600.224,499.903C614.154,513.04 631.682,518.729 650.725,518.026C663.81,517.525 676.567,513.79 687.857,507.155C735.573,479 711.554,420.081 747.009,382.057C757.176,371.154 770.312,364.383 785.329,363.949C799.729,363.532 813.873,367.632 824.489,377.676C833.98,386.655 840.165,399.43 840.517,412.564C840.902,423.117 836.92,433.361 829.511,440.885C823.36,447.222 815.677,452.122 806.545,452.111C800.234,452.103 793.837,449.652 789.373,445.144C784.211,439.932 783.856,434.04 784.006,427.142C785.894,431.678 788.486,435.683 792.71,438.37C796.878,441.022 801.594,441.631 806.368,440.537C811.914,439.267 816.557,435.256 819.351,430.361C822.656,424.572 823.413,416.282 821.636,409.967C819.713,403.136 814.896,397.725 808.809,394.25C801.685,390.184 792.707,388.775 784.76,390.985C753.531,399.668 755.989,442.404 751.666,467.574C749.516,480.092 746.051,492.132 739.729,503.222C725.969,527.361 701.075,545.414 674.37,552.524C648.63,559.489 621.167,555.717 598.258,542.071C606.673,552.63 614.944,562.515 625.904,570.629C641.743,582.355 661.189,589.647 681.056,586.606C702.646,583.301 719.827,569.466 731.687,551.661C736.969,543.731 741.273,535.172 746.958,527.507C758.813,511.521 776.585,497.108 796.852,494.289C810.448,492.398 823.645,495.171 834.632,503.565C845.091,511.591 851.918,523.456 853.6,536.533C855.296,549.65 852.732,563.614 844.396,574.156C838.769,581.272 830.587,586.535 821.447,587.453C812.671,588.334 805.059,585.535 798.322,580.03C806.641,581.186 815.494,579.827 822.501,574.98C829.144,570.385 833.355,563.481 834.779,555.572C836.175,547.557 834.248,539.319 829.443,532.753C825.14,526.813 818.044,522.477 810.731,521.502C780.058,517.411 768.397,556.407 756.073,576.689C749.584,587.368 741.029,597.581 731.037,605.144C705.709,624.313 669.574,629.864 639.712,618.914C615.295,609.962 593.576,591.864 573.065,576.302L533.759,546.425C528.662,542.497 517.007,531.401 511.061,530.6C504.381,532.776 493.878,542.904 487.859,547.531L444.165,581.025C427.032,594.039 409.02,608.673 389.007,616.954C378.888,621.142 368.105,623.217 357.188,623.77C319.846,625.781 284.646,606.248 266.593,573.498C258.256,558.663 252.684,542.327 239.563,530.71C232.674,524.611 223.908,520.522 214.526,521.295C207.024,521.895 200.109,525.583 195.433,531.479C190.377,537.753 188.029,545.782 188.906,553.792C189.738,561.653 193.744,568.835 199.995,573.674C207.686,579.628 216.878,581.135 226.314,579.875C221.299,584.068 215.538,586.831 208.975,587.442C200.154,588.264 191.423,585.14 184.679,579.492C175.847,572.096 171.019,560.964 170.061,549.626C168.83,535.055 172.286,521.54 181.94,510.338C190.089,500.697 201.814,494.792 214.412,493.984C241.885,491.993 264.996,509.513 279.932,531.218C289.894,545.693 294.924,558.423 309.081,570.411C322.804,582.031 339.885,588.516 357.942,586.907C388.185,584.212 407.664,563.58 426.003,541.881C410.973,551.53 390.763,556.375 373.004,555.945C352.879,555.312 333.353,548.944 316.724,537.59C250.282,492.452 284.054,430.938 254.219,399.939C248.252,393.739 239.708,389.827 231.065,389.778C223.515,389.735 214.37,393.459 209.086,398.736C204.11,403.706 200.881,410.376 200.953,417.476C200.974,424.307 203.778,430.834 208.718,435.552C212.561,439.164 217.631,441.414 222.967,441.071C231.497,440.522 234.375,435.6 239.408,429.938L240.018,429.928C240.141,430.597 240.195,430.749 240.181,431.526C240.043,436.734 237.967,441.704 234.357,445.462C230.136,449.938 224.266,452.493 218.113,452.532C209.666,452.553 201.757,448.355 195.93,442.443C188.194,434.596 183.561,423.522 183.65,412.485C183.753,399.848 189.883,387.192 198.889,378.474C209.413,368.289 223.895,363.574 238.379,363.983C249.933,364.309 260.759,368.518 269.806,375.673C311.274,408.464 291.154,463.854 322.34,496.123C335.935,510.189 356.961,517.959 376.323,518.073C398.611,518.204 413.351,510.329 428.797,494.957C413.661,502.002 397.626,503.684 381.49,499.077C364.411,494.201 349.736,483.316 338.747,469.53C329.783,458.286 323.594,445.332 319.848,431.478C315.826,416.604 314.685,401.068 315.485,385.72C316.609,364.172 326.763,329.14 316.146,310.576C312.42,303.968 306.148,299.177 298.793,297.32C292.63,295.82 285.804,296.678 280.412,300.105C276.341,302.692 273.461,306.641 272.451,311.378C271.232,317.104 272.815,323.486 276.022,328.318C279.592,333.696 284.432,336.597 290.624,337.841C286.259,339.191 282.083,339.845 277.589,338.634C271.319,336.944 266.024,333.01 262.921,327.266C259.396,320.739 259.169,312.616 261.381,305.622C264.362,296.194 271.059,287.847 279.9,283.341C289.977,278.207 302.027,277.61 312.718,281.14C321.695,284.104 329.579,289.939 335.525,297.238C366.809,335.642 331.845,387.608 355.396,434.043C362.674,448.394 374.532,461.005 390.15,465.995C398.813,468.763 410.784,469.522 419.001,465.098C423.988,462.412 427.458,458.008 429.24,452.662C436.375,431.25 417.465,411.826 412.611,391.844C407.864,372.299 409.679,351.422 415.778,332.395C429.928,288.256 470.919,254.146 510.854,233.46ZM583.638,360.852C581.577,368.952 579.087,376.981 574.317,383.945C559.976,404.881 534.452,411.393 534.051,441.256L534.558,442.074C542.585,431.405 552.85,424.329 562.384,415.312C576.433,402.024 586.831,383.21 584.072,363.359C583.955,362.518 583.845,361.677 583.638,360.852ZM450.218,428.811C449.848,438.765 448.776,449.304 456.275,457.171C461.988,463.164 469.959,465.482 477.178,469.03C477.578,460.005 477.062,451.436 470.682,444.36C465.016,438.075 457.327,433.28 450.218,428.811ZM440.158,361.385C439.27,381.141 443.471,395.83 457.06,410.711C463.553,417.822 471.395,423.146 478.311,429.738C482.219,433.463 485.799,439.071 490.028,442.217C489.777,428.711 484.727,418.325 475.021,408.972C466.037,400.316 455.899,393.845 448.86,383.174C446.159,379.079 440.539,361.762 440.158,361.385ZM572.942,429.01C562.7,435.973 549.931,442.723 547.373,455.946C546.745,459.195 545.674,465.597 546.948,468.625L547.344,468.879C556.951,464.653 567.856,460.725 571.984,450.066C574.341,443.981 574.503,435.711 573.287,429.36L572.942,429.01Z" style="fill:rgb(0,62,123);"/>
    <path d="M511.613,553.434C515.407,555.345 519.229,558.96 522.635,561.577C529.196,566.637 535.796,571.648 542.432,576.609C577.129,602.617 611.824,628.532 653.79,641.416C642.39,674.081 628.926,696.056 607.679,723.289C620.566,730.949 632.286,735.209 647.496,734.088C673.316,732.187 692.617,715.193 708.858,696.509C717.91,706.945 727.704,716.734 739.276,724.401C755.77,735.329 777.467,744.338 797.63,740.283C786.872,749.175 775.552,756.382 761.596,758.996C741.082,762.838 724.331,753.217 707.988,741.974C695.738,749.841 681.535,754.131 666.979,754.362C643.493,754.744 623.838,743.165 605.095,730.38C597.389,725.124 589.547,719.645 582.816,713.162C568.101,730.794 548.783,746.354 529.119,758.046C526.865,743.466 526.105,728.314 524.708,713.613L516.166,622.966C514.869,609.363 514.065,595.628 512.317,582.084L511.992,582.238C510.703,587.54 510.724,593.857 510.216,599.325L506.928,633.168L494.871,758.342C478.876,749.399 452.106,727.637 441.33,712.97C426.972,727.347 396.031,747.207 376.771,752.102C355.286,757.561 334.655,753.112 315.844,741.97C304.5,750.323 290.829,758.459 276.487,759.743C258.097,761.389 240.591,752.24 226.934,740.767C230.12,740.968 233.292,741.116 236.484,741.019C269.205,740.022 293.96,719.43 315.237,696.769C331.399,714.05 347.993,729.977 372.421,733.681C388.467,736.113 402.349,732.409 415.261,722.818C394.812,695.33 381.013,673.932 369.712,641.404C406.22,631.457 437.403,609.383 467.386,587.112C482.259,576.058 497.002,564.832 511.613,553.434Z" style="fill:rgb(0,62,123);fill-rule:nonzero;"/>
    <path d="M440.038,739.959C463.166,761.464 484.237,774.278 512.475,788.224C541.028,775.394 560.781,760.182 584.284,740.023C597.934,751.917 612.931,762.171 628.968,770.574C663.33,788.296 703.06,798.012 740.88,785.904C726.693,798.623 712.252,807.787 693.394,811.91C655.928,820.101 620.436,803.362 589.673,783.597L587.612,782.206C585.508,782.206 574.642,792.003 571.897,793.885C553.033,806.816 532.479,816.965 511.543,826.047C485.512,812.877 458.701,800.924 436.592,781.431C415.812,797.232 384.297,811.799 358.351,813.771C327.834,816.091 306.951,806.27 284.256,786.883C292.866,789.757 302.293,791.135 311.338,791.538C356.586,793.555 407.148,770.253 440.038,739.959Z" style="fill:rgb(0,62,123);fill-rule:nonzero;"/>
    <path d="M436.694,812.89C440.05,813.341 455.491,825.013 460.049,827.641C476.97,837.398 494.326,845.979 511.883,854.514C537.938,842.111 563.674,829.433 587.384,812.86C606.61,826.852 629.373,836.198 653.377,836.095C640.184,847.321 624.985,855.948 608.583,861.52C601.515,860.271 594.876,858.426 588.125,855.981C587.823,855.852 587.536,855.682 587.219,855.595C585.347,855.077 576.581,861.219 574.579,862.371C553.878,874.064 532.838,885.146 511.486,895.602C486.748,883.45 461.301,870.311 438.21,855.291C430.975,858.18 423.675,860.025 416.07,861.578C401.194,857.036 383.414,845.706 371.176,836.304C394.912,835.662 417.492,826.437 436.694,812.89Z" style="fill:rgb(0,62,123);fill-rule:nonzero;"/>
    <path d="M512.338,126.245C514.032,129.725 523.246,185.484 523.588,192.055C524.015,200.243 516.557,206.37 511.467,212.034C509.045,210.001 506.764,206.962 504.936,204.369C502.979,201.594 501.042,198.356 500.636,194.935C499.464,185.069 510.054,139.007 512.338,126.245Z" style="fill:rgb(0,62,123);fill-rule:nonzero;"/>
    <path d="M588.738,160.552C588.697,161.412 560.074,208.458 556.278,213.63C552.947,218.167 540.991,219.703 535.708,220.536C534.596,216.317 535.631,208.709 536.292,204.361C536.562,202.591 536.919,200.322 538.049,198.878C544.378,190.787 578.341,168.245 588.738,160.552Z" style="fill:rgb(0,62,123);fill-rule:nonzero;"/>
    <path d="M434.447,160.878C439,162.643 483.926,196.163 487.844,200.741C488.183,207.387 488.195,214.056 488.542,220.71C482.052,218.536 474.875,217.98 468.639,215.128C464.438,209.928 461.2,203.071 457.66,197.342C450.05,185.107 442.312,172.952 434.447,160.878Z" style="fill:rgb(0,62,123);fill-rule:nonzero;"/>
    <path d="M626.819,214.679C627.347,214.552 627.741,214.622 628.276,214.677C627.551,215.686 587.183,239.168 582.518,241.819C573.391,247.006 567.858,244.503 558.533,241.905L551.686,240.054C555.759,235.401 560.961,228.906 566.315,225.809C573.373,221.725 616.341,216.268 626.819,214.679Z" style="fill:rgb(0,62,123);fill-rule:nonzero;"/>
    <path d="M395.319,214.528C408.612,216.272 421.859,218.347 435.048,220.752C441.068,221.795 447.765,222.434 453.573,224.317C457.935,225.731 468.363,235.546 470.486,239.491C469.619,240.611 468.585,240.637 467.262,241.039C461.258,242.805 455.288,244.679 449.06,245.446C438.99,241.562 429.202,234.508 419.884,228.951C411.746,224.097 403.319,219.578 395.319,214.528Z" style="fill:rgb(0,62,123);fill-rule:nonzero;"/>
</svg>
